<svg xmlns="http://www.w3.org/2000/svg" xmlns:xlink="http://www.w3.org/1999/xlink" viewBox="0 0 459.54 459.54"><defs><style>.cls-1,.cls-10,.cls-11,.cls-12,.cls-13,.cls-14,.cls-15,.cls-16,.cls-17,.cls-18,.cls-19,.cls-2,.cls-20,.cls-21,.cls-22,.cls-23,.cls-24,.cls-25,.cls-26,.cls-27,.cls-28,.cls-29,.cls-3,.cls-4,.cls-5,.cls-6,.cls-7,.cls-8,.cls-9{stroke-miterlimit:10;}.cls-1,.cls-26{stroke-width:6px;}.cls-1{fill:url(#radial-gradient);stroke:url(#radial-gradient-2);}.cls-10,.cls-11,.cls-12,.cls-13,.cls-14,.cls-15,.cls-16,.cls-17,.cls-18,.cls-19,.cls-2,.cls-26,.cls-28,.cls-29,.cls-3,.cls-4,.cls-5,.cls-6,.cls-7,.cls-8,.cls-9{fill:none;}.cls-2{stroke:url(#radial-gradient-3);}.cls-3{stroke:url(#radial-gradient-4);}.cls-4{stroke:url(#radial-gradient-5);}.cls-5{stroke:url(#radial-gradient-6);}.cls-6{stroke:url(#radial-gradient-7);}.cls-7{stroke:url(#radial-gradient-8);}.cls-8{stroke:url(#radial-gradient-9);}.cls-9{stroke:url(#radial-gradient-10);}.cls-10{stroke:url(#radial-gradient-11);}.cls-11{stroke:url(#radial-gradient-12);}.cls-12{stroke:url(#radial-gradient-13);}.cls-13{stroke:url(#radial-gradient-14);}.cls-14{stroke:url(#radial-gradient-15);}.cls-15{stroke:url(#radial-gradient-16);}.cls-16{stroke:url(#radial-gradient-17);}.cls-17{stroke:url(#radial-gradient-18);}.cls-18{stroke:url(#radial-gradient-19);}.cls-19{stroke:url(#radial-gradient-20);}.cls-20,.cls-21{fill:#1d1d1b;}.cls-20,.cls-23{stroke:#1d1d1b;}.cls-21,.cls-22,.cls-24,.cls-25{stroke:#3c3c3b;}.cls-22{fill:#3c3c3b;}.cls-25,.cls-27{fill:#fff;}.cls-26,.cls-27,.cls-29{stroke:#be1622;}.cls-26,.cls-27,.cls-28,.cls-29{stroke-linecap:round;}.cls-28{stroke:#fff;}.cls-29{stroke-width:4px;}</style><radialGradient id="radial-gradient" cx="229.77" cy="229.77" r="226.77" gradientUnits="userSpaceOnUse"><stop offset="0.55" stop-color="#fff"/><stop offset="0.62" stop-color="#fcfcfc"/><stop offset="0.67" stop-color="#f1f1f1"/><stop offset="0.72" stop-color="#e0e0e0"/><stop offset="0.77" stop-color="#c8c8c7"/><stop offset="0.82" stop-color="#a9a9a8"/><stop offset="0.86" stop-color="#828281"/><stop offset="0.91" stop-color="#545453"/><stop offset="0.95" stop-color="#21211f"/><stop offset="0.95" stop-color="#1d1d1b"/></radialGradient><radialGradient id="radial-gradient-2" cx="229.77" cy="229.77" r="229.77" gradientUnits="userSpaceOnUse"><stop offset="0" stop-color="#f6f6f6"/><stop offset="0.07" stop-color="#e9e9e9"/><stop offset="0.16" stop-color="#dedede"/><stop offset="0.27" stop-color="#dadada"/><stop offset="0.5" stop-color="#e94e1b"/><stop offset="0.76" stop-color="#e6332a"/><stop offset="1" stop-color="#9b1622"/></radialGradient><radialGradient id="radial-gradient-3" cx="229.77" cy="229.77" r="160.7" xlink:href="#radial-gradient-2"/><radialGradient id="radial-gradient-4" cx="229.77" cy="229.77" r="160.69" xlink:href="#radial-gradient-2"/><radialGradient id="radial-gradient-5" cx="229.77" cy="229.77" r="160.66" xlink:href="#radial-gradient-2"/><radialGradient id="radial-gradient-6" cx="229.77" cy="229.77" r="160.63" xlink:href="#radial-gradient-2"/><radialGradient id="radial-gradient-7" cx="229.77" cy="229.77" r="160.58" xlink:href="#radial-gradient-2"/><radialGradient id="radial-gradient-8" cx="229.77" cy="229.77" r="160.53" xlink:href="#radial-gradient-2"/><radialGradient id="radial-gradient-9" cx="229.77" cy="229.77" r="160.48" xlink:href="#radial-gradient-2"/><radialGradient id="radial-gradient-10" cx="229.77" cy="229.77" r="160.42" xlink:href="#radial-gradient-2"/><radialGradient id="radial-gradient-11" cx="229.77" cy="229.77" r="160.36" xlink:href="#radial-gradient-2"/><radialGradient id="radial-gradient-12" cx="229.77" cy="229.77" r="160.41" xlink:href="#radial-gradient-2"/><radialGradient id="radial-gradient-13" cx="229.77" cy="229.77" r="160.47" xlink:href="#radial-gradient-2"/><radialGradient id="radial-gradient-14" cx="229.77" cy="229.77" r="160.53" xlink:href="#radial-gradient-2"/><radialGradient id="radial-gradient-15" cx="229.77" cy="229.77" r="160.58" xlink:href="#radial-gradient-2"/><radialGradient id="radial-gradient-16" cx="229.77" cy="229.77" r="160.62" xlink:href="#radial-gradient-2"/><radialGradient id="radial-gradient-17" cx="229.77" cy="229.77" r="160.66" xlink:href="#radial-gradient-2"/><radialGradient id="radial-gradient-18" cx="229.77" cy="229.77" r="160.68" xlink:href="#radial-gradient-2"/><radialGradient id="radial-gradient-19" cx="229.77" cy="229.77" r="160.7" xlink:href="#radial-gradient-2"/><radialGradient id="radial-gradient-20" cx="229.77" cy="229.77" r="160.71" xlink:href="#radial-gradient-2"/></defs><g id="Layer_2" data-name="Layer 2"><circle class="cls-1" cx="229.77" cy="229.77" r="226.77"/><line class="cls-2" x1="56.8" y1="83.12" x2="402.75" y2="376.42"/><line class="cls-3" x1="44.67" y1="98.76" x2="414.87" y2="360.79"/><line class="cls-4" x1="33.96" y1="115.39" x2="425.58" y2="344.16"/><line class="cls-5" x1="24.74" y1="132.89" x2="434.81" y2="326.65"/><line class="cls-6" x1="17.07" y1="151.13" x2="442.47" y2="308.42"/><line class="cls-7" x1="11.03" y1="169.96" x2="448.52" y2="289.58"/><line class="cls-8" x1="6.65" y1="189.26" x2="452.9" y2="270.29"/><line class="cls-9" x1="3.97" y1="208.86" x2="455.58" y2="250.69"/><line class="cls-10" x1="3" y1="228.62" x2="456.54" y2="230.93"/><line class="cls-11" x1="3.76" y1="248.39" x2="455.78" y2="211.16"/><line class="cls-12" x1="6.25" y1="268.01" x2="453.3" y2="191.53"/><line class="cls-13" x1="10.43" y1="287.35" x2="449.11" y2="172.19"/><line class="cls-14" x1="16.28" y1="306.25" x2="443.26" y2="153.3"/><line class="cls-15" x1="23.76" y1="324.56" x2="435.78" y2="134.98"/><line class="cls-16" x1="32.81" y1="342.16" x2="426.74" y2="117.39"/><line class="cls-17" x1="43.35" y1="358.9" x2="416.19" y2="100.65"/><line class="cls-18" x1="55.31" y1="374.65" x2="404.23" y2="84.89"/><line class="cls-19" x1="68.61" y1="389.31" x2="390.94" y2="70.24"/><line class="cls-2" x1="83.12" y1="402.75" x2="376.42" y2="56.8"/><line class="cls-3" x1="98.76" y1="414.87" x2="360.79" y2="44.67"/><line class="cls-4" x1="115.39" y1="425.58" x2="344.16" y2="33.96"/><line class="cls-5" x1="132.89" y1="434.81" x2="326.65" y2="24.74"/><line class="cls-6" x1="151.13" y1="442.47" x2="308.42" y2="17.07"/><line class="cls-7" x1="169.96" y1="448.52" x2="289.58" y2="11.03"/><line class="cls-8" x1="189.26" y1="452.9" x2="270.29" y2="6.65"/><line class="cls-9" x1="208.86" y1="455.58" x2="250.69" y2="3.97"/><line class="cls-10" x1="228.62" y1="456.54" x2="230.93" y2="3"/><line class="cls-11" x1="248.39" y1="455.78" x2="211.16" y2="3.76"/><line class="cls-12" x1="268.01" y1="453.3" x2="191.53" y2="6.25"/><line class="cls-13" x1="287.35" y1="449.11" x2="172.19" y2="10.43"/><line class="cls-14" x1="306.25" y1="443.26" x2="153.3" y2="16.28"/><line class="cls-15" x1="324.56" y1="435.78" x2="134.98" y2="23.76"/><line class="cls-16" x1="342.16" y1="426.74" x2="117.39" y2="32.81"/><line class="cls-17" x1="358.9" y1="416.19" x2="100.65" y2="43.35"/><line class="cls-18" x1="374.65" y1="404.23" x2="84.89" y2="55.31"/><line class="cls-19" x1="389.31" y1="390.94" x2="70.24" y2="68.61"/><ellipse class="cls-20" cx="336.95" cy="330.86" rx="32.81" ry="7.88" transform="translate(-304.33 117.62) rotate(-26.41)"/><ellipse class="cls-21" cx="505.27" cy="330.22" rx="7.87" ry="32.81" transform="translate(-213.73 558.3) rotate(-62.41)"/><path class="cls-22" d="M469.66,351.54c-11.13,4.44-13.61,7.76-19.08,9.82-4.31-14.68-4.24-15.87,5.56-37,2.51-5.43,5.7-10,8.51-14.8s34.08-43.33-31.79-45.22V250.11c-3.86.1-7.72.23-11.58.34V381.38h.33a7.29,7.29,0,0,0,0,3.93c2.81,10.45,27.35,17.56,53.91,2.21,17.16-9.92,42.43-17.05,48.51-29.82C532.49,339.86,496.9,340.66,469.66,351.54Z" transform="translate(-192.32 -66.8)"/><path class="cls-22" d="M420.85,250.47c-3.17.09-6.35.15-9.52.17v13c-61.24.05-38.25,33.67-33.36,42.56,3.87,7,6.14,13.91,8.3,18.44,10.09,21.15,11.25,22.05,5.71,36.73-5.48-2.06-8.07-4.38-15.26-7.57-26.78-11.89-66.66-13.93-58.16,3.9,6.09,12.77,31.36,19.9,48.52,29.82,26.56,15.35,51.09,8.24,53.91-2.21a7.39,7.39,0,0,0,0-3.93h.33Z" transform="translate(-192.32 -66.8)"/><path class="cls-23" d="M524.06,357.71c5.52-21.28-28.72-8.53-64.45,10.85-29.1,15.8-56,27.81-54.91,35.43,1.07,7.24,28.81-.65,62.23-12.28C500.56,380,520.65,370.82,524.06,357.71Z" transform="translate(-192.32 -66.8)"/><path class="cls-23" d="M317.53,356.58c-5.32-21.34,28.8-8.25,64.33,11.49,28.95,16.09,55.76,28.37,54.56,36-1.15,7.23-28.8-.94-62.11-12.91C340.81,379.11,320.8,369.72,317.53,356.58Z" transform="translate(-192.32 -66.8)"/><path class="cls-22" d="M484.51,293c5,13.69,4.89,25.7-.87,27.79s-15.06-6.53-20-20.21-4.37-30.47,1.46-28.58C473,274.53,479.54,279.27,484.51,293Z" transform="translate(-192.32 -66.8)"/><path class="cls-22" d="M379.85,300.47c4.52-13.83,3.42-30.48-2.39-28.49-7.6,2.6-14.22,7.76-18.73,21.6s-3.17,26.53,2.66,28.44S375.34,314.3,379.85,300.47Z" transform="translate(-192.32 -66.8)"/><path class="cls-24" d="M393.58,219.16c0,9.15,4,17.35,9.29,23.35s10.36,10.73,18.41,10.73c7.46,0,12.93-5.38,18.15-11a35.35,35.35,0,0,0,9.56-23.9c0-9.7-2.25-16.64-8.09-22.7-5.18-5.37-12.37-7.11-19.93-7.11s-14.05,1.7-19.21,7C395.86,201.58,393.58,209.41,393.58,219.16Z" transform="translate(-192.32 -66.8)"/><ellipse class="cls-25" cx="228.97" cy="154.08" rx="27.7" ry="7.17"/><path class="cls-26" d="M301.21,344.89a678.75,678.75,0,0,0,119.35,10.47,678.47,678.47,0,0,0,116.19-10.13" transform="translate(-192.32 -66.8)"/><rect class="cls-27" x="488.34" y="344.27" width="52.03" height="8.44" transform="translate(-228.78 -5.73) rotate(-6.56)"/><line class="cls-28" x1="295.72" y1="280.61" x2="306.43" y2="287.59"/><line class="cls-28" x1="296.16" y1="284.43" x2="301.93" y2="288.19"/><line class="cls-28" x1="300.61" y1="280.05" x2="311.32" y2="287.02"/><line class="cls-28" x1="305.5" y1="279.48" x2="316.21" y2="286.46"/><line class="cls-28" x1="310.39" y1="278.92" x2="321.1" y2="285.9"/><line class="cls-28" x1="315.28" y1="278.36" x2="325.99" y2="285.34"/><line class="cls-28" x1="320.17" y1="277.8" x2="330.88" y2="284.77"/><line class="cls-28" x1="325.06" y1="277.23" x2="335.77" y2="284.21"/><line class="cls-28" x1="329.95" y1="276.67" x2="340.66" y2="283.65"/><line class="cls-28" x1="334.84" y1="276.11" x2="345.55" y2="283.09"/><line class="cls-28" x1="339.73" y1="275.55" x2="347.99" y2="280.93"/><line class="cls-28" x1="344.62" y1="274.98" x2="347.68" y2="276.98"/><line class="cls-29" x1="293.84" y1="274.63" x2="295.79" y2="295.91"/></g></svg>